<svg xmlns="http://www.w3.org/2000/svg" width="48" height="48" viewBox="0 0 48 48">
    <path fill="#C00"
        d="M4.25 26.267c1.506-8.145 9.332-13.526 17.48-12.017.542.1.901.622.8 1.165-.1.543-.622.902-1.165.801-7.06-1.307-13.843 3.356-15.149 10.415-1.307 7.06 3.356 13.843 10.415 15.15 7.06 1.308 13.843-3.357 15.149-10.417.29-1.562.282-3.151-.008-4.722-.1-.543.259-1.064.802-1.165.543-.1 1.064.26 1.165.802.333 1.808.343 3.644.008 5.45-1.507 8.146-9.333 13.528-17.48 12.02-8.145-1.51-13.526-9.336-12.017-17.482zm14.748-8.27c.552 0 1 .448 1 1v1.853c.783.122 1.563.346 2.328.644.713.279 1.263.56 1.59.758.473.286.624.901.338 1.374-.286.472-.9.623-1.373.337-.236-.142-.687-.373-1.283-.606-.984-.384-1.986-.613-2.93-.613-1.97 0-3.357.953-3.357 2.202 0 1.374 1.057 2.149 4.245 3.412l.305.12c3.8 1.505 5.204 2.5 5.204 4.83 0 2.584-1.976 4.12-5.067 4.398v1.802c0 .552-.448 1-1 1s-1-.448-1-1l-.001-1.793c-1.237-.1-2.308-.394-3.215-.831-.71-.343-1.189-.702-1.453-.976-.384-.397-.372-1.03.025-1.414.398-.383 1.03-.372 1.414.026.107.11.397.328.883.562.863.416 1.952.67 3.292.67 2.72 0 4.122-.909 4.122-2.444 0-1.112-.954-1.788-3.94-2.97l-.306-.12c-3.968-1.573-5.508-2.702-5.508-5.272 0-2.352 2.05-3.942 4.686-4.173l.001-1.776c0-.552.448-1 1-1zm14.439-4c.552 0 1 .447 1 1 0 .552-.448 1-1 1h-2.154c1.157 1.512 2.97 2.445 4.953 2.445h.057c2.584 0 4.846-1.517 5.784-3.822.208-.512.791-.758 1.303-.55.512.208.758.791.55 1.303-1.245 3.06-4.24 5.069-7.637 5.069H36.237c-2.443 0-4.69-1.073-6.222-2.836l.001 1.821c0 .552-.447 1-1 1-.552 0-1-.448-1-1v-4.43c0-.553.448-1 1-1zm9.566-9.999c.553 0 1 .448 1 1v4.444c0 .552-.447 1-1 1h-4.422c-.552 0-1-.448-1-1 0-.553.448-1 1-1l2.173-.001c-1.156-1.507-2.992-2.443-5.005-2.443h-.08c-2.537 0-4.789 1.487-5.755 3.72-.22.507-.809.74-1.315.521-.507-.22-.74-.808-.52-1.315 1.282-2.963 4.254-4.926 7.59-4.926l.04.001h.04c2.457 0 4.72 1.064 6.255 2.814V4.998c0-.552.447-1 1-1z">
    </path>
</svg>