<?xml version="1.0" encoding="UTF-8"?>
<svg width="48px" height="48px" viewBox="0 0 48 48" version="1.1" xmlns="http://www.w3.org/2000/svg" xmlns:xlink="http://www.w3.org/1999/xlink">
    <title>Artboard Copy 36</title>
    <defs>
        <path d="M41,20 C43.7614237,20 46,22.2385763 46,25 L46,35 C46,37.7614237 43.7614237,40 41,40 L19,40 C16.2385763,40 14,37.7614237 14,35 L14,25 C14,22.2385763 16.2385763,20 19,20 L41,20 Z M41,22 L19,22 C17.3431458,22 16,23.3431458 16,25 L16,35 C16,36.6568542 17.3431458,38 19,38 L41,38 C42.6568542,38 44,36.6568542 44,35 L44,25 C44,23.3431458 42.6568542,22 41,22 Z M30.0001076,23.460467 C30.5523924,23.460467 31.0001076,23.9081823 31.0001076,24.460467 L31.0014589,25.4712594 C31.1650546,25.5093486 31.3202632,25.5557579 31.4669592,25.6095331 C31.7645492,25.7186224 31.9834519,25.8402418 32.1249987,25.9462 C32.5671289,26.2771673 32.6572443,26.9038866 32.3262771,27.3460168 C31.9953099,27.788147 31.3685906,27.8782625 30.9264603,27.5472952 C30.9355482,27.5540982 30.8867467,27.5269847 30.7786007,27.487341 C30.5495602,27.4033804 30.2560193,27.3501265 29.8916395,27.3501265 C29.4207374,27.3501265 29.0596428,27.647778 29.0596428,28.0465936 C29.0596428,28.1247245 29.2212646,28.3065943 29.6101167,28.5261775 C29.839207,28.6555439 30.560263,28.9730382 30.5638829,28.9749159 C30.4832654,28.9331277 31.1959829,29.2475015 31.5033506,29.42496 C32.4140773,29.9507674 33.0001076,30.6777158 33.0001076,31.7067913 C33.0001076,33.0281938 32.211098,33.9195353 31.0012874,34.2617909 L31.0001076,35.539533 C31.0001076,36.0918177 30.5523924,36.539533 30.0001076,36.539533 C29.4478229,36.539533 29.0001076,36.0918177 29.0001076,35.539533 L29,34.3116255 L28.7685909,34.2509546 C28.6053807,34.2036761 28.4397628,34.1478351 28.2725902,34.0849756 C27.9655895,33.9695386 27.7115318,33.8542688 27.5486205,33.7718366 C27.0558292,33.5224872 26.8584806,32.9208632 27.10783,32.4280719 C27.3571794,31.9352806 27.9588034,31.7379319 28.4515948,31.9872813 C28.5548925,32.0395494 28.746159,32.1263299 28.9765037,32.2129431 C29.1542304,32.2797711 29.3239896,32.3336643 29.4758185,32.3699034 C29.6121799,32.4024507 29.7249131,32.4183597 29.8011135,32.4183597 C30.6660201,32.4183597 31.0001076,32.1706526 31.0001076,31.7067913 C31.0001076,31.5368039 30.859874,31.3628494 30.5033519,31.1570116 C30.3106595,31.0457608 29.655497,30.756774 29.6432272,30.7504139 C29.7282579,30.7945206 28.9626686,30.4574175 28.6266904,30.267692 C27.6732585,29.7292928 27.0596428,29.0388033 27.0596428,28.0465936 C27.0596428,26.7764468 27.9015966,25.821855 28.9999921,25.4836467 L29.0001076,24.460467 C29.0001076,23.9081823 29.4478229,23.460467 30.0001076,23.460467 Z M26,8.00462548 C28.7614237,8.00462548 31,10.2432017 31,13.0046255 L31,14.4426255 L32.7825653,12.6071803 C33.1673011,12.2109521 33.8003975,12.2016356 34.1966258,12.5863714 C34.592854,12.9711072 34.6021705,13.6042036 34.2174347,14.0004318 L30.6233027,17.7019244 C30.212525,18.1249724 29.5267597,18.1025611 29.1444801,17.6535952 L25.7386121,13.6535952 C25.3805678,13.2330923 25.4312005,12.6019551 25.8517034,12.2439108 C26.2722063,11.8858664 26.9033435,11.9364991 27.2613879,12.357002 L29,14.3996255 L29,13.0046255 C29,11.3477712 27.6568542,10.0046255 26,10.0046255 L7,10.0046255 C5.34314575,10.0046255 4,11.3477712 4,13.0046255 L4,26 C4,27.6568542 5.34314575,29 7,29 L11.0021661,29 C11.5544509,29 12.0021661,29.4477153 12.0021661,30 C12.0021661,30.5522847 11.5544509,31 11.0021661,31 L7,31 C4.23857625,31 2,28.7614237 2,26 L2,13.0046255 C2,10.2432017 4.23857625,8.00462548 7,8.00462548 L26,8.00462548 Z" id="path-1"></path>
    </defs>
    <g id="Artboard-Copy-36" stroke="none" stroke-width="1" fill="none" fill-rule="evenodd">
        <g id="C.-People-&amp;-Nature/a.-People/CA180-team-together-|-ðŸ”-PEOPLE,-profile,-together,-perfiles,-juntos">
            <mask id="mask-2" fill="white">
                <use xlink:href="#path-1"></use>
            </mask>
            <use id="ic_bank_renegotiation" fill="#CC0000" xlink:href="#path-1"></use>
        </g>
    </g>
</svg>