<?xml version="1.0" encoding="UTF-8"?>
<svg width="48px" height="48px" viewBox="0 0 48 48" version="1.1" xmlns="http://www.w3.org/2000/svg" xmlns:xlink="http://www.w3.org/1999/xlink">
    <title>Artboard Copy 35</title>
    <g id="Artboard-Copy-35" stroke="none" stroke-width="1" fill="none" fill-rule="evenodd">
        <g id="C.-People-&amp;-Nature/a.-People/CA180-team-together-|-ðŸ”-PEOPLE,-profile,-together,-perfiles,-juntos" fill="#CC0000">
            <path d="M41.196912,9 C43.3089774,9 44.9576848,10.8998081 44.9576848,13.1812429 L44.9576848,13.1812429 L44.9576848,30.754237 C44.9576848,33.0356717 43.3089774,34.9354798 41.196912,34.9354798 L41.196912,34.9354798 L40.99,34.935 L40.990363,36.8096316 C40.990363,39.0212089 39.4457498,40.8753403 37.4310212,40.9856811 L37.2407959,40.9908745 L8.74956709,40.9908745 C6.64265991,40.9908745 5,39.0903207 5,36.8096316 L5,36.8096316 L5,19.128539 C5,16.8478499 6.64265991,14.9472961 8.74956709,14.9472961 L8.74956709,14.9472961 L8.967,14.947 L8.96732181,13.1812429 C8.96732181,10.9689425 10.5176215,9.11549032 12.5373981,9.00519139 L12.7280946,9 Z M8.967,16.947 L8.74956709,16.9472961 C7.8172811,16.9472961 7,17.8928885 7,19.128539 L7,19.128539 L7,36.8096316 C7,38.0452821 7.8172811,38.9908745 8.74956709,38.9908745 L8.74956709,38.9908745 L37.2407959,38.9908745 C38.1730819,38.9908745 38.990363,38.0452821 38.990363,36.8096316 L38.990363,36.8096316 L38.99,34.935 L12.7280946,34.9354798 C10.6800312,34.9354798 9.06766896,33.1490671 8.97183072,30.9605466 L8.96732181,30.754237 L8.967,16.947 Z M42.957,28.969 L10.967,28.969 L10.9673218,30.754237 C10.9673218,31.9330098 11.7156177,32.8488529 12.6007781,32.9296759 L12.7280946,32.9354798 L41.196912,32.9354798 C42.1364258,32.9354798 42.9576848,31.9891418 42.9576848,30.754237 L42.9576848,30.754237 L42.957,28.969 Z M42.957,24.988 L10.967,24.988 L10.967,26.969 L42.957,26.969 L42.957,24.988 Z M41.196912,11 L12.7280946,11 C11.7885808,11 10.9673218,11.946338 10.9673218,13.1812429 L10.9673218,13.1812429 L10.967,22.988 L42.957,22.988 L42.9576848,13.1812429 C42.9576848,12.0024701 42.2093889,11.0866269 41.3242285,11.005804 L41.196912,11 Z" id="Icon"></path>
        </g>
    </g>
</svg>