<?xml version="1.0" encoding="UTF-8"?>
<svg width="48px" height="48px" viewBox="0 0 48 48" version="1.1" xmlns="http://www.w3.org/2000/svg" xmlns:xlink="http://www.w3.org/1999/xlink">
    <title>Artboard Copy 46</title>
    <g id="Artboard-Copy-46" stroke="none" stroke-width="1" fill="none" fill-rule="evenodd">
        <g id="A.-Finance/c.-Money-&amp;-operations/AC370-savings-|-ðŸ”-savings,-ahorros,-piggy-bank,-hucha" fill="#CC0000">
            <path d="M31.9942592,4.88579751 L32.0006,5.00064899 L32,10.000351 L37,10.000649 C37.5128358,10.000649 37.9355072,10.3866892 37.9932723,10.8840279 L38,11.000649 L38,36.512649 C38,40.5678301 34.7784359,43.8689075 30.7543866,43.9968025 L30.512,44.000649 L17.488,44.000649 C13.4328189,44.000649 10.1317415,40.7790849 10.0038465,36.7550356 L10,36.512649 L10,11.000649 C10,10.4878132 10.3860402,10.0651418 10.8833789,10.0073767 L11,10.000649 L16,10.000351 L16.0006,5.00064899 C16.0006,4.29547734 16.7043901,3.82447072 17.3439262,4.06113453 L17.4497889,4.1072122 L20.9112661,5.84752248 L23.4644784,4.16556442 C23.765104,3.96752387 24.1455217,3.94804163 24.4615792,4.10606993 L24.5768024,4.1736493 L27.0362841,5.84562873 L30.5572918,4.10427975 C31.1869484,3.79287688 31.9189505,4.21051701 31.9942592,4.88579751 Z M32,12.000351 L32,14.000351 L33.0006,14.000649 C33.5134358,14.000649 33.9361072,14.3866892 33.9938723,14.8840279 L34.0006,15.000649 C34.0006,15.5134848 33.6145598,15.9361562 33.1172211,15.9939213 L33.0006,16.000649 L15.0006,16.000649 C14.4483153,16.000649 14.0006,15.5529337 14.0006,15.000649 C14.0006,14.4878132 14.3866402,14.0651418 14.8839789,14.0073767 L15.0006,14.000649 L16,14.000351 L16,12.000351 L12,12.000649 L12,36.512649 C12,39.47042 14.3379272,41.8804879 17.2672214,41.9962927 L17.488,42.000649 L30.512,42.000649 C33.469771,42.000649 35.8798389,39.6627218 35.9956437,36.7334276 L36,36.512649 L36,12.000649 L32,12.000351 Z M19.0006,38.000649 C19.5528847,38.000649 20.0006,38.4483642 20.0006,39.000649 C20.0006,39.5529337 19.5528847,40.000649 19.0006,40.000649 L19.0006,40.000649 L17.0006,40.000649 C16.4483153,40.000649 16.0006,39.5529337 16.0006,39.000649 C16.0006,38.4483642 16.4483153,38.000649 17.0006,38.000649 L17.0006,38.000649 Z M25.0006,38.000649 C25.5528847,38.000649 26.0006,38.4483642 26.0006,39.000649 C26.0006,39.5529337 25.5528847,40.000649 25.0006,40.000649 L25.0006,40.000649 L23.0006,40.000649 C22.4483153,40.000649 22.0006,39.5529337 22.0006,39.000649 C22.0006,38.4483642 22.4483153,38.000649 23.0006,38.000649 L23.0006,38.000649 Z M31.0006,38.000649 C31.5528847,38.000649 32.0006,38.4483642 32.0006,39.000649 C32.0006,39.5529337 31.5528847,40.000649 31.0006,40.000649 L31.0006,40.000649 L29.0006,40.000649 C28.4483153,40.000649 28.0006,39.5529337 28.0006,39.000649 C28.0006,38.4483642 28.4483153,38.000649 29.0006,38.000649 L29.0006,38.000649 Z M19.0006,34.000649 C19.5528847,34.000649 20.0006,34.4483642 20.0006,35.000649 C20.0006,35.5529337 19.5528847,36.000649 19.0006,36.000649 L19.0006,36.000649 L17.0006,36.000649 C16.4483153,36.000649 16.0006,35.5529337 16.0006,35.000649 C16.0006,34.4483642 16.4483153,34.000649 17.0006,34.000649 L17.0006,34.000649 Z M25.0006,34.000649 C25.5528847,34.000649 26.0006,34.4483642 26.0006,35.000649 C26.0006,35.5529337 25.5528847,36.000649 25.0006,36.000649 L25.0006,36.000649 L23.0006,36.000649 C22.4483153,36.000649 22.0006,35.5529337 22.0006,35.000649 C22.0006,34.4483642 22.4483153,34.000649 23.0006,34.000649 L23.0006,34.000649 Z M31.0006,34.000649 C31.5528847,34.000649 32.0006,34.4483642 32.0006,35.000649 C32.0006,35.5529337 31.5528847,36.000649 31.0006,36.000649 L31.0006,36.000649 L29.0006,36.000649 C28.4483153,36.000649 28.0006,35.5529337 28.0006,35.000649 C28.0006,34.4483642 28.4483153,34.000649 29.0006,34.000649 L29.0006,34.000649 Z M19.0006,30.000649 C19.5528847,30.000649 20.0006,30.4483642 20.0006,31.000649 C20.0006,31.5529337 19.5528847,32.000649 19.0006,32.000649 L19.0006,32.000649 L17.0006,32.000649 C16.4483153,32.000649 16.0006,31.5529337 16.0006,31.000649 C16.0006,30.4483642 16.4483153,30.000649 17.0006,30.000649 L17.0006,30.000649 Z M25.0006,30.000649 C25.5528847,30.000649 26.0006,30.4483642 26.0006,31.000649 C26.0006,31.5529337 25.5528847,32.000649 25.0006,32.000649 L25.0006,32.000649 L23.0006,32.000649 C22.4483153,32.000649 22.0006,31.5529337 22.0006,31.000649 C22.0006,30.4483642 22.4483153,30.000649 23.0006,30.000649 L23.0006,30.000649 Z M31.0006,30.000649 C31.5528847,30.000649 32.0006,30.4483642 32.0006,31.000649 C32.0006,31.5529337 31.5528847,32.000649 31.0006,32.000649 L31.0006,32.000649 L29.0006,32.000649 C28.4483153,32.000649 28.0006,31.5529337 28.0006,31.000649 C28.0006,30.4483642 28.4483153,30.000649 29.0006,30.000649 L29.0006,30.000649 Z M31.0006,18.000649 C31.5134358,18.000649 31.9361072,18.3866892 31.9938723,18.8840279 L32.0006,19.000649 L32.0006,27.000649 C32.0006,27.5134848 31.6145598,27.9361562 31.1172211,27.9939213 L31.0006,28.000649 L17.0006,28.000649 C16.4877642,28.000649 16.0650928,27.6146088 16.0073277,27.1172701 L16.0006,27.000649 L16.0006,19.000649 C16.0006,18.4878132 16.3866402,18.0651418 16.8839789,18.0073767 L17.0006,18.000649 L31.0006,18.000649 Z M30.0006,20.000649 L18.0006,20.000649 L18.0006,26.000649 L30.0006,26.000649 L30.0006,20.000649 Z M24.0058543,6.20389385 L21.5287216,7.83573356 C21.2673626,8.00790679 20.9429537,8.04646381 20.6518498,7.94577822 L20.5294111,7.89408578 L18.0006,6.62268756 L18,14.000351 L30,14.000351 L30.0006,6.61082052 L27.3999082,7.89701823 C27.1171353,8.03686637 26.7876491,8.03405488 26.5099525,7.89537942 L26.3943976,7.82764868 L24.0058543,6.20389385 Z" id="Icon"></path>
        </g>
    </g>
</svg>