<?xml version="1.0" encoding="UTF-8"?>
<svg width="48px" height="48px" viewBox="0 0 48 48" version="1.1" xmlns="http://www.w3.org/2000/svg" xmlns:xlink="http://www.w3.org/1999/xlink">
    <title>Artboard Copy 33</title>
    <g id="Artboard-Copy-33" stroke="none" stroke-width="1" fill="none" fill-rule="evenodd">
        <g id="C.-People-&amp;-Nature/a.-People/CA180-team-together-|-ðŸ”-PEOPLE,-profile,-together,-perfiles,-juntos" fill="#CC0000">
            <path d="M24,4 C35.0462847,4 44,12.9537153 44,24 C44,35.0462847 35.0462847,44 24,44 C12.9537153,44 4,35.0462847 4,24 C4,12.9537153 12.9537153,4 24,4 Z M24,6 C14.0582847,6 6,14.0582847 6,24 C6,33.9417153 14.0582847,42 24,42 C33.9417153,42 42,33.9417153 42,24 C42,14.0582847 33.9417153,6 24,6 Z M24,9.8828 C24.5128358,9.8828 24.9355072,10.2688402 24.9932723,10.7661789 L25,10.8828 L25.0000675,14.0781879 C26.0310193,14.2110185 27.0636673,14.4723911 28.0763878,14.8292396 C28.9756082,15.1460944 29.6676324,15.4653663 30.0748637,15.6876199 C30.5596483,15.9521995 30.7381597,16.5596792 30.4735801,17.0444637 C30.2090005,17.5292483 29.6015208,17.7077597 29.1167363,17.4431801 C28.7974676,17.2689337 28.2003668,16.9934556 27.4117122,16.7155604 C26.1037615,16.2546829 24.7688304,15.9794 23.4998,15.9794 C20.8095449,15.9794 18.8818,17.1746112 18.8818,18.7034 C18.8818,20.3212005 20.245685,21.2655466 24.1805844,22.6945151 L24.5052882,22.8114623 L24.8980242,22.9516616 C29.7208571,24.6739904 31.4558,25.7823996 31.4558,28.4294 C31.4558,31.408942 28.9546205,33.1268916 25.0011046,33.39911 L25.0008,36.5108 C25.0008,37.0630847 24.5530847,37.5108 24.0008,37.5108 C23.4879642,37.5108 23.0652928,37.1247598 23.0075277,36.6274211 L23.0008,36.5108 L23.0008705,33.4159695 C21.3112727,33.3297123 19.8640488,32.9870515 18.6532097,32.4604204 C17.7734208,32.0777732 17.1826704,31.6786316 16.8631553,31.3801505 C16.459573,31.0031363 16.4380353,30.3703377 16.8150495,29.9667553 C17.1920637,29.563173 17.8248623,29.5416353 18.2284447,29.9186495 C18.3874296,30.0671684 18.7890542,30.3385268 19.4508903,30.6263796 C20.6103776,31.1306762 22.0693742,31.4374 23.8538,31.4374 C27.5053854,31.4374 29.4558,30.2965835 29.4558,28.4294 C29.4558,27.1083258 28.2227957,26.2838953 24.5465118,24.9507023 L24.22539,24.8351592 L23.8323118,24.6948377 C18.791563,22.8936539 16.8818,21.6309585 16.8818,18.7034 C16.8818,15.9496545 19.5794856,14.1505199 23.0005834,13.9909672 L23,10.8828 C23,10.3305153 23.4477153,9.8828 24,9.8828 Z" id="Icon"></path>
        </g>
    </g>
</svg>