<svg xmlns="http://www.w3.org/2000/svg" width="48" height="48" viewBox="0 0 48 48">
    <path fill="#C00" fill-rule="evenodd"
        d="M37 4c.552 0 1 .448 1 1v38c0 .552-.448 1-1 1H11c-.552 0-1-.448-1-1V5c0-.552.448-1 1-1zm-1 2H12v36h24V6zM23.965 23c.513 0 .935.386.993.884l.007.116v.743c.372.08.74.194 1.103.336.443.173.786.348.997.476.472.286.623.9.337 1.373-.286.472-.9.624-1.373.338-.12-.073-.363-.197-.689-.324-.533-.209-1.073-.332-1.57-.332-.95 0-1.553.415-1.553.878 0 .535.475.906 2.012 1.53l.216.086.178.07c2.397.95 3.314 1.598 3.314 3.218 0 1.657-1.176 2.673-2.971 2.946l-.001.68c0 .553-.448 1-1 1-.513 0-.936-.385-.993-.883l-.007-.116v-.671c-.62-.086-1.17-.254-1.652-.486-.462-.223-.783-.463-.97-.658-.383-.397-.372-1.03.026-1.414.397-.383 1.03-.372 1.414.026.03.031.16.13.4.245.45.217 1.027.351 1.75.351h-.018l.05-.003h.04c1.343-.01 1.932-.403 1.932-1.017 0-.382-.423-.7-1.832-1.27l-.218-.088-.178-.07c-2.49-.986-3.492-1.72-3.492-3.476 0-1.51 1.192-2.545 2.748-2.81V24c0-.552.448-1 1-1zM31 18c.552 0 1 .448 1 1s-.448 1-1 1H17c-.552 0-1-.448-1-1s.448-1 1-1zm0-6c.552 0 1 .448 1 1s-.448 1-1 1H17c-.552 0-1-.448-1-1s.448-1 1-1z">
    </path>
</svg>